<svg xmlns="http://www.w3.org/2000/svg" viewBox="0 0 64 64" role="img" aria-label="OmaQ mark">
  <g fill="#c8c4b8">
    <rect x="20" y="8" width="24" height="2.4"/>
    <rect x="16" y="12" width="32" height="2.4"/>
    <rect x="13" y="16" width="10" height="2.4"/>
    <rect x="41" y="16" width="10" height="2.4"/>
    <rect x="12" y="20" width="8" height="2.4"/>
    <rect x="44" y="20" width="8" height="2.4"/>
    <rect x="12" y="24" width="8" height="2.4"/>
    <rect x="44" y="24" width="8" height="2.4"/>
    <rect x="12" y="28" width="8" height="2.4"/>
    <rect x="44" y="28" width="8" height="2.4"/>
    <rect x="13" y="32" width="10" height="2.4"/>
    <rect x="41" y="32" width="10" height="2.4"/>
    <rect x="16" y="36" width="32" height="2.4"/>
    <rect x="20" y="40" width="24" height="2.4"/>
  </g>
  <g fill="#ff5a36">
    <rect x="46" y="40" width="8" height="2.4"/>
    <rect x="48" y="44" width="8" height="2.4"/>
    <rect x="50" y="48" width="7" height="2.4"/>
  </g>
</svg>
