<svg xmlns="http://www.w3.org/2000/svg" viewBox="0 0 203.00 56" role="img" aria-label="OmaQ">
  <!-- Entire word in scan-slat construction. Colors from Q: #c8c4b8 / #ff5a36 -->
  <g fill="#c8c4b8">
    <rect x="10.00" y="8" width="24" height="2.4"/>
    <rect x="6.00" y="12" width="32" height="2.4"/>
    <rect x="3.00" y="16" width="10" height="2.4"/>
    <rect x="31.00" y="16" width="10" height="2.4"/>
    <rect x="2.00" y="20" width="8" height="2.4"/>
    <rect x="34.00" y="20" width="8" height="2.4"/>
    <rect x="2.00" y="24" width="8" height="2.4"/>
    <rect x="34.00" y="24" width="8" height="2.4"/>
    <rect x="2.00" y="28" width="8" height="2.4"/>
    <rect x="34.00" y="28" width="8" height="2.4"/>
    <rect x="3.00" y="32" width="10" height="2.4"/>
    <rect x="31.00" y="32" width="10" height="2.4"/>
    <rect x="6.00" y="36" width="32" height="2.4"/>
    <rect x="10.00" y="40" width="24" height="2.4"/>
  </g>
  <g fill="#c8c4b8">
    <rect x="70.00" y="8" width="12" height="2.4"/>
    <rect x="56.00" y="12" width="40" height="2.4"/>
    <rect x="52.00" y="16" width="10" height="2.4"/>
    <rect x="71.00" y="16" width="10" height="2.4"/>
    <rect x="90.00" y="16" width="10" height="2.4"/>
    <rect x="52.00" y="20" width="8" height="2.4"/>
    <rect x="72.00" y="20" width="8" height="2.4"/>
    <rect x="92.00" y="20" width="8" height="2.4"/>
    <rect x="52.00" y="24" width="8" height="2.4"/>
    <rect x="72.00" y="24" width="8" height="2.4"/>
    <rect x="92.00" y="24" width="8" height="2.4"/>
    <rect x="52.00" y="28" width="8" height="2.4"/>
    <rect x="72.00" y="28" width="8" height="2.4"/>
    <rect x="92.00" y="28" width="8" height="2.4"/>
    <rect x="52.00" y="32" width="8" height="2.4"/>
    <rect x="72.00" y="32" width="8" height="2.4"/>
    <rect x="92.00" y="32" width="8" height="2.4"/>
    <rect x="52.00" y="36" width="10" height="2.4"/>
    <rect x="71.00" y="36" width="10" height="2.4"/>
    <rect x="90.00" y="36" width="10" height="2.4"/>
    <rect x="54.00" y="40" width="8" height="2.4"/>
    <rect x="72.00" y="40" width="8" height="2.4"/>
    <rect x="92.00" y="40" width="8" height="2.4"/>
  </g>
  <g fill="#c8c4b8">
    <rect x="118.00" y="8" width="16" height="2.4"/>
    <rect x="114.00" y="12" width="24" height="2.4"/>
    <rect x="110.00" y="16" width="10" height="2.4"/>
    <rect x="132.00" y="16" width="10" height="2.4"/>
    <rect x="110.00" y="20" width="8" height="2.4"/>
    <rect x="134.00" y="20" width="8" height="2.4"/>
    <rect x="110.00" y="24" width="8" height="2.4"/>
    <rect x="134.00" y="24" width="8" height="2.4"/>
    <rect x="110.00" y="28" width="36" height="2.4"/>
    <rect x="110.00" y="32" width="8" height="2.4"/>
    <rect x="134.00" y="32" width="8" height="2.4"/>
    <rect x="110.00" y="36" width="8" height="2.4"/>
    <rect x="134.00" y="36" width="8" height="2.4"/>
    <rect x="110.00" y="40" width="8" height="2.4"/>
    <rect x="134.00" y="40" width="6" height="2.4"/>
  </g>
  <g fill="#c8c4b8">
    <rect x="164.00" y="8" width="24" height="2.4"/>
    <rect x="160.00" y="12" width="32" height="2.4"/>
    <rect x="157.00" y="16" width="10" height="2.4"/>
    <rect x="185.00" y="16" width="10" height="2.4"/>
    <rect x="156.00" y="20" width="8" height="2.4"/>
    <rect x="188.00" y="20" width="8" height="2.4"/>
    <rect x="156.00" y="24" width="8" height="2.4"/>
    <rect x="188.00" y="24" width="8" height="2.4"/>
    <rect x="156.00" y="28" width="8" height="2.4"/>
    <rect x="188.00" y="28" width="8" height="2.4"/>
    <rect x="157.00" y="32" width="10" height="2.4"/>
    <rect x="185.00" y="32" width="10" height="2.4"/>
    <rect x="160.00" y="36" width="32" height="2.4"/>
    <rect x="164.00" y="40" width="24" height="2.4"/>
  </g>
  <g fill="#ff5a36">
    <rect x="190.00" y="40" width="8" height="2.4"/>
    <rect x="192.00" y="44" width="8" height="2.4"/>
    <rect x="194.00" y="48" width="7" height="2.4"/>
  </g>
</svg>
